# Blender v2.74 (sub 0) OBJ File: ''
# www.blender.org
mtllib newgrandstand.mtl
o Grandstands_Glass
v -0.099990 0.101191 -0.064225
v -0.099990 0.101230 -0.020791
v -0.099990 0.082390 -0.020791
v -0.099990 0.082390 -0.046357
v 0.096707 0.082390 -0.046357
v 0.096707 0.101191 -0.064225
v 0.000086 0.101191 -0.064225
v 0.000086 0.082390 -0.046357
v 0.096707 0.101191 -0.064225
v 0.096707 0.101230 -0.020791
v 0.096707 0.082390 -0.020791
v 0.096707 0.082390 -0.046357
vt 0.000000 0.000000
vt 0.410993 0.433242
vt 0.999622 0.433761
vt 1.000000 0.000000
vt 0.000016 0.499999
vt 0.129593 0.500000
vt 0.129588 0.000000
vt 0.000000 0.999997
vt 0.129587 1.000000
vn -1.000000 -0.000000 0.000000
vn 0.000000 -0.688900 -0.724900
vn 1.000000 -0.000000 0.000000
usemtl Grandstand_Glass_mtl
s 1
f 1/1/1 4/2/1 3/3/1 2/4/1
f 5/1/2 8/5/2 7/6/2 6/7/2
f 8/5/2 4/8/2 1/9/2 7/6/2
f 9/1/3 10/4/3 11/3/3 12/2/3
o Grandstands_Side_Fence
v 0.095368 0.000766 -0.083333
v 0.095368 0.048289 -0.022763
v 0.095368 0.048289 -0.007653
v 0.095368 0.011515 -0.083333
v 0.095368 0.059037 -0.022763
v 0.095368 0.059037 -0.007653
v 0.095368 0.035949 -0.052674
v 0.095368 0.025200 -0.052674
v -0.098651 0.000766 -0.083333
v -0.098651 0.048289 -0.022763
v -0.098651 0.048289 -0.007653
v -0.098651 0.011515 -0.083333
v -0.098651 0.059037 -0.022763
v -0.098651 0.059037 -0.007653
v -0.098651 0.035949 -0.052674
v -0.098651 0.025200 -0.052674
v 0.095368 0.000766 -0.083333
v 0.095368 0.048289 -0.022763
v 0.095368 0.048289 -0.007653
v 0.095368 0.011515 -0.083333
v 0.095368 0.059037 -0.022763
v 0.095368 0.059037 -0.007653
v 0.095368 0.035949 -0.052674
v 0.095368 0.025200 -0.052674
v -0.098651 0.000766 -0.083333
v -0.098651 0.048289 -0.022763
v -0.098651 0.048289 -0.007653
v -0.098651 0.011515 -0.083333
v -0.098651 0.059037 -0.022763
v -0.098651 0.059037 -0.007653
v -0.098651 0.035949 -0.052674
v -0.098651 0.025200 -0.052674
vt 0.000517 -0.000000
vt 1.000000 -0.000000
vt 1.000000 0.991453
vt 0.000517 0.991453
vt -0.000000 1.000000
vt -0.000000 0.005788
vt 0.499089 0.005788
vt 0.499089 1.000000
vn 1.000000 0.000000 -0.000000
vn -1.000000 0.000000 -0.000000
usemtl Grandstand_Fence_mtl
s 1
f 20/10/4 14/11/4 17/12/4 19/13/4
f 14/14/4 15/15/4 18/16/4 17/17/4
f 13/10/4 20/11/4 19/12/4 16/13/4
f 28/10/5 27/13/5 25/12/5 22/11/5
f 22/14/5 25/17/5 26/16/5 23/15/5
f 21/10/5 24/13/5 27/12/5 28/11/5
f 36/10/4 35/13/4 33/12/4 30/11/4
f 30/14/4 33/17/4 34/16/4 31/15/4
f 29/10/4 32/13/4 35/12/4 36/11/4
f 44/10/5 38/11/5 41/12/5 43/13/5
f 38/14/5 39/15/5 42/16/5 41/17/5
f 37/10/5 44/11/5 43/12/5 40/13/5
o Grandstands_Door
v -0.011436 0.048998 0.012569
v -0.011436 0.071702 0.012569
v 0.011689 0.048998 0.012569
v 0.011689 0.071702 0.012569
vt -0.000000 0.000000
vt -0.000000 1.000000
vt 1.000000 1.000000
vt 0.999999 0.000000
vn 0.000000 0.000000 -1.000000
usemtl Grandstand_Door_mtl
s 1
f 45/18/6 46/19/6 48/20/6 47/21/6
o Grandstands_Concrete
v 0.096707 0.101191 -0.064225
v 0.000086 0.101191 -0.064225
v -0.099990 0.101191 -0.064225
v -0.099990 0.101230 -0.020791
v 0.000086 0.101230 -0.020791
v 0.096707 0.101230 -0.020791
v -0.099990 0.103501 -0.066753
v -0.099990 0.107125 -0.066753
v -0.099990 0.109517 -0.064225
v -0.100027 0.109556 0.013652
v -0.100027 0.075395 0.013652
v -0.099990 0.075395 -0.046360
v -0.099990 0.077493 -0.047667
v -0.099990 0.079941 -0.047666
v -0.099990 0.082390 -0.046357
v -0.099990 0.082390 -0.020791
v -0.100027 0.048998 -0.008283
v -0.099989 0.075395 -0.008283
v -0.100027 0.048998 0.013652
v 0.096707 0.103501 -0.066753
v 0.096707 0.107125 -0.066753
v 0.096707 0.109517 -0.064225
v 0.096744 0.109556 0.013652
v 0.096744 0.075395 0.013652
v 0.096707 0.075395 -0.046360
v 0.096707 0.077493 -0.047667
v 0.096707 0.079941 -0.047666
v 0.096707 0.082390 -0.046357
v 0.096707 0.082390 -0.020791
v 0.096744 0.048998 -0.008283
v 0.096707 0.075395 -0.008283
v 0.096744 0.048998 0.013652
v 0.096744 0.000064 -0.084910
v -0.100027 0.000064 -0.084910
v 0.096744 0.012225 -0.084910
v -0.100027 0.012225 -0.084910
v 0.096744 0.012225 -0.083333
v -0.100027 0.012225 -0.083333
v 0.096744 0.001476 -0.083333
v -0.100027 0.001476 -0.083333
v -0.099989 0.048998 -0.008283
v 0.096744 0.075395 -0.008283
v -0.099989 0.071702 -0.008283
v 0.096744 0.071702 -0.008283
v -0.011436 0.048998 -0.008283
v -0.011436 0.075395 -0.008283
v -0.011436 0.071702 -0.008283
v 0.011689 0.048998 -0.008283
v 0.011689 0.075395 -0.008283
v 0.011689 0.071702 -0.008283
v -0.097488 0.036364 -0.022763
v -0.100027 0.048998 -0.022763
v -0.100027 0.042677 -0.022763
v -0.097382 0.000131 -0.068997
v -0.100027 0.000064 -0.077059
v -0.100027 0.000064 -0.083333
v -0.082517 0.036364 -0.022764
v -0.082517 0.000000 -0.068997
v -0.097700 0.048998 -0.022764
v -0.097700 0.001476 -0.083333
v -0.100027 0.042677 0.013652
v -0.097488 0.036293 0.013652
v -0.082517 0.036293 -0.000000
v -0.082521 0.000000 -0.000000
v -0.082520 0.000000 -0.022760
v 0.079234 0.036364 -0.024340
v 0.094205 0.036364 -0.024340
v 0.079234 0.000000 -0.070574
v 0.094099 0.000131 -0.070574
v 0.011689 0.048998 0.012569
v 0.011689 0.071702 0.012569
v -0.011436 0.048998 0.012569
v -0.011436 0.071702 0.012569
v -0.097700 0.043325 -0.022897
v -0.097700 0.000064 -0.077060
v -0.097700 0.000064 -0.083333
v 0.000086 0.075395 -0.046364
v 0.000086 0.082390 -0.046357
v 0.000086 0.077493 -0.047670
v 0.000086 0.079941 -0.047669
v 0.000086 0.109517 -0.064225
v 0.000086 0.107125 -0.066753
v 0.000086 0.103501 -0.066753
v 0.096707 0.109517 -0.064222
v 0.000086 0.075395 -0.008286
v 0.000086 0.082390 -0.020791
v -0.082517 0.000000 -0.000000
v -0.052991 0.000000 -0.000000
v -0.052991 0.036293 -0.000000
v -0.052991 0.000000 0.013652
v -0.052991 0.036293 0.013652
v -0.082517 0.036320 -0.000010
v 0.096744 0.000064 -0.083333
v 0.094205 0.036364 -0.022764
v 0.096744 0.048998 -0.022763
v 0.096744 0.042677 -0.022763
v 0.094099 0.000131 -0.068997
v 0.096744 0.000064 -0.077060
v 0.079234 0.036364 -0.022764
v 0.079234 0.000000 -0.068997
v 0.094417 0.048998 -0.022763
v 0.094417 0.001476 -0.083333
v 0.096744 0.042677 0.013652
v 0.094205 0.036293 0.013652
v 0.079234 0.036293 -0.000000
v 0.079238 0.000000 -0.000000
v 0.079237 0.000000 -0.022540
v 0.094417 0.043325 -0.022897
v 0.094417 0.000064 -0.077059
v 0.094417 0.000064 -0.083333
v 0.079234 0.000000 0.000000
v 0.049708 0.000000 -0.000000
v 0.049708 0.036293 -0.000000
v 0.049708 0.036293 0.013652
v 0.079234 0.036320 -0.000010
v 0.049708 0.000000 0.013652
v 0.096744 0.048998 -0.021649
v -0.100027 0.048998 -0.021649
v 0.094417 0.048998 -0.008283
v 0.094417 0.049039 -0.021642
v -0.097714 0.048998 -0.008283
v -0.097714 0.048998 -0.022763
v -0.097714 0.048998 -0.021649
v -0.052991 0.042677 0.013652
v -0.052997 0.109556 0.013651
v 0.049708 0.042677 0.013652
v 0.049668 0.109556 0.013651
v -0.075744 0.082390 -0.046199
v -0.075744 0.082390 -0.044745
v -0.075744 0.101204 -0.064086
v -0.075744 0.101204 -0.062829
v -0.074874 0.101204 -0.064086
v -0.074874 0.101204 -0.062829
v -0.074874 0.082390 -0.046199
v -0.074874 0.082390 -0.044745
v -0.099960 0.082390 -0.046199
v -0.099960 0.082390 -0.044745
v -0.099960 0.101204 -0.064086
v -0.099960 0.101204 -0.062829
v -0.099089 0.101204 -0.064086
v -0.099089 0.101204 -0.062829
v -0.099089 0.082390 -0.046199
v -0.099089 0.082390 -0.044745
v -0.050983 0.082390 -0.046199
v -0.050983 0.082390 -0.044745
v -0.050983 0.101204 -0.064086
v -0.050983 0.101204 -0.062829
v -0.050113 0.101204 -0.064086
v -0.050113 0.101204 -0.062829
v -0.050113 0.082390 -0.046199
v -0.050113 0.082390 -0.044745
v -0.026737 0.082390 -0.046199
v -0.026737 0.082390 -0.044745
v -0.026737 0.101204 -0.064086
v -0.026737 0.101204 -0.062829
v -0.025867 0.101204 -0.064086
v -0.025867 0.101204 -0.062829
v -0.025867 0.082390 -0.046199
v -0.025867 0.082390 -0.044745
v -0.001976 0.082390 -0.046199
v -0.001976 0.082390 -0.044745
v -0.001976 0.101204 -0.064086
v -0.001976 0.101204 -0.062829
v -0.001106 0.101204 -0.064086
v -0.001106 0.101204 -0.062829
v -0.001106 0.082390 -0.046199
v -0.001106 0.082390 -0.044745
v 0.022527 0.082390 -0.046199
v 0.022527 0.082390 -0.044745
v 0.022527 0.101204 -0.064086
v 0.022527 0.101204 -0.062829
v 0.023398 0.101204 -0.064086
v 0.023398 0.101204 -0.062829
v 0.023398 0.082390 -0.046199
v 0.023398 0.082390 -0.044745
v 0.047187 0.082390 -0.046199
v 0.047187 0.082390 -0.044745
v 0.047187 0.101204 -0.064086
v 0.047187 0.101204 -0.062829
v 0.048058 0.101204 -0.064086
v 0.048058 0.101204 -0.062829
v 0.048058 0.082390 -0.046199
v 0.048058 0.082390 -0.044745
v 0.071948 0.082390 -0.046199
v 0.071948 0.082390 -0.044745
v 0.071948 0.101204 -0.064086
v 0.071948 0.101204 -0.062829
v 0.072819 0.101204 -0.064086
v 0.072819 0.101204 -0.062829
v 0.072819 0.082390 -0.046199
v 0.072819 0.082390 -0.044745
v 0.095718 0.082390 -0.046199
v 0.095718 0.082390 -0.044745
v 0.095718 0.101204 -0.064086
v 0.095718 0.101204 -0.062829
v 0.096589 0.101204 -0.064086
v 0.096589 0.101204 -0.062829
v 0.096589 0.082390 -0.046199
v 0.096589 0.082390 -0.044745
vt -0.023585 -0.419557
vt -0.023586 1.419654
vt 0.500007 1.419654
vt 0.500007 -0.419690
vt 1.023601 1.419654
vt 1.023600 -0.419690
vt 0.787284 1.457413
vt 1.032413 1.458447
vt 1.226801 1.683133
vt 0.787284 1.682097
vt 0.773016 1.617569
vt 0.773016 1.519743
vt 0.888106 0.761281
vt 0.888124 0.950040
vt 0.880739 0.883975
vt 0.880733 0.817909
vt 1.032415 0.950040
vt 1.226805 0.761281
vt 1.103011 0.097264
vt 1.226805 0.097264
vt 1.103011 0.761281
vt 0.458100 1.447598
vt 0.458100 1.671331
vt 0.912532 1.672363
vt 0.711548 1.448627
vt 0.443348 1.509664
vt 0.443348 1.607077
vt 0.562343 0.754413
vt 0.554720 0.810801
vt 0.554726 0.876587
vt 0.562362 0.942373
vt 0.912536 0.754413
vt 0.711550 0.942373
vt 0.784541 0.093206
vt 0.784541 0.754413
vt 0.912536 0.093206
vt 0.885634 -0.084251
vt 2.787173 -0.084251
vt 2.787173 -0.632969
vt 0.885634 -0.632969
vt 1.455416 1.000000
vt 3.455416 1.000000
vt 3.455416 0.918613
vt 1.455416 0.918613
vt 0.000000 1.000000
vt 0.000000 0.000000
vt 2.000000 0.000000
vt 2.000000 1.000000
vt -0.291901 0.099388
vt -0.291901 0.788538
vt 0.321192 0.788538
vt 0.321192 0.099388
vt 1.070167 0.788538
vt 0.481294 0.788538
vt 0.481294 0.900612
vt 1.070167 0.900612
vt 0.321192 0.900612
vt -0.291901 0.900612
vt 0.481294 0.099388
vt 1.070167 0.099388
vt 0.265379 0.500000
vt 0.347185 0.704615
vt 0.816318 0.704615
vt 0.816318 0.500000
vt 0.201952 0.297438
vt 0.201952 0.339863
vt 0.816318 0.295385
vt 0.128350 0.000000
vt 0.128350 1.000000
vt 0.500000 1.000000
vt 0.500000 0.000000
vt 0.246387 0.481354
vt 0.856535 0.481354
vt 0.856535 0.584604
vt 0.246387 0.584604
vt 0.389366 0.500000
vt 0.389366 0.704615
vt 0.639474 0.704615
vt 0.639474 0.500000
vt 0.389366 0.296746
vt 0.639474 0.296360
vt 0.566010 0.030559
vt 0.694004 0.030559
vt 0.694004 0.967608
vt 0.565993 0.969441
vt 0.305996 0.030559
vt 0.327855 1.450734
vt 0.327855 -0.521332
vt 0.583890 -0.521332
vt 0.581422 1.450734
vt 0.201952 0.005018
vt 0.816318 0.000000
vt 0.201952 0.108688
vt 0.676776 -0.521332
vt 0.674308 1.450734
vt 0.314214 0.513434
vt 0.314213 0.601910
vt 1.297522 0.601910
vt 1.297522 0.513434
vt 2.280829 0.513434
vt 2.280830 0.601910
vt 0.314213 0.705130
vt 1.297522 0.705130
vt 2.280830 0.705130
vt 0.314213 0.808351
vt 1.297522 0.808351
vt 2.280829 0.808351
vt -0.604933 1.029361
vt -0.604933 1.139167
vt 0.500000 1.139167
vt 0.500000 1.029361
vt -0.604933 0.862896
vt 0.500000 0.862896
vt -0.604933 0.756832
vt 0.500000 0.756832
vt 1.604933 1.029361
vt 1.604933 1.139167
vt 1.604933 0.862896
vt 1.604933 0.756832
vt 1.262075 0.949146
vt 1.262070 0.050803
vt 0.500028 0.050876
vt 0.500028 0.949220
vt -0.262014 0.050803
vt -0.262019 0.949146
vt -0.737934 0.196923
vt -0.737937 0.803077
vt -0.058045 0.801844
vt -0.058045 0.196923
vt 0.621846 0.801844
vt 0.621844 0.196923
vt 0.387958 -0.081855
vt 0.594106 -0.081855
vt 0.594106 1.081855
vt 0.387958 1.081855
vt 0.459798 -0.018627
vt 0.543935 -0.018627
vt 0.543935 1.018627
vt 0.459798 1.018627
vt 0.470571 0.264807
vt 0.470633 1.219022
vt 0.555737 1.219022
vt 0.555740 -0.219023
vt 0.328724 -0.219022
vt 0.328724 0.264808
vt 1.880264 0.918613
vt 2.000000 0.918613
vt 1.880263 1.000000
vt 0.816318 0.716923
vt 0.347185 0.716923
vt 0.201952 0.285254
vt 0.816318 0.283077
vt 0.201952 0.330231
vt 0.128350 0.332239
vt 0.974572 0.332239
vt 0.974572 0.000000
vt 0.389366 0.500508
vt 0.639474 0.500508
vt 0.639474 0.787175
vt 0.389366 0.787175
vt 0.389366 0.215749
vt 0.639474 0.215208
vt 0.310190 0.057048
vt 0.564567 0.942952
vt 0.565795 0.057048
vt 0.689810 0.941222
vt 0.689810 0.057048
vt 0.450937 -0.079467
vt 0.450937 1.079467
vt 0.575331 1.079467
vt 0.575331 -0.079467
vt 0.536173 0.373334
vt 0.644886 -0.455019
vt 0.644883 2.007023
vt 0.536252 2.007023
vt 0.355114 -0.455018
vt 0.355114 0.373336
vt 0.216548 0.053770
vt 0.216548 0.946230
vt 0.322965 0.946230
vt 0.322965 0.053770
vt 0.432253 0.563146
vt 0.549774 0.563146
vt 0.549774 -0.408108
vt 0.432253 -0.408108
vt 0.012030 1.154998
vt 0.988242 1.154997
vt 0.000000 1.204360
vt 0.012030 1.204360
vt 1.000000 1.154997
vt 1.000000 1.204360
vt 0.000000 1.154998
vt 0.012030 0.563146
vt 0.000000 0.563146
vt 0.988242 0.563145
vt 1.000000 0.563145
vt 0.988242 1.204360
vt -0.045157 -1.080799
vt 0.238869 -1.080799
vt 0.238869 -0.536489
vt -0.045157 -0.536489
vt -0.045157 -0.440753
vt -0.175243 -0.440753
vt -0.168221 -0.536489
vt -0.045176 0.535413
vt -0.175141 0.535413
vt 0.238869 -0.440753
vt 0.238760 0.535413
vt 0.361933 -0.536489
vt 0.368954 -0.440753
vt 0.368853 0.535413
vt 1.104745 -0.160543
vt -0.123616 -0.160543
vt -0.123616 -0.839457
vt 1.104745 -0.839451
vt 0.486944 0.000000
vt 0.498017 0.000000
vt 0.498017 1.032015
vt 0.486944 1.032015
vt 0.520148 1.032188
vt 0.509016 1.032188
vt 0.509016 0.000172
vt 0.520148 0.000172
vt 0.509016 0.000000
vt 0.509016 1.032015
vt 0.475871 0.000000
vt 0.475871 1.032015
vt -1.981532 -0.814790
vt -1.753611 0.554438
vt -2.183301 0.554439
vt -2.183302 -0.814791
vt -1.338754 -0.814792
vt -1.338755 0.554383
vt -1.540723 -0.814792
vn 0.000000 -1.000000 0.000900
vn -1.000000 -0.001600 -0.000300
vn -1.000000 0.000000 0.000000
vn -1.000000 0.000000 0.000100
vn -1.000000 -0.000000 -0.001100
vn -1.000000 0.001500 -0.000400
vn -1.000000 0.000700 -0.000900
vn 1.000000 -0.001600 -0.000300
vn 1.000000 0.000000 0.000000
vn 1.000000 -0.000000 -0.001100
vn 1.000000 0.001600 -0.000400
vn 1.000000 0.000700 -0.000900
vn 0.000000 0.000000 -1.000000
vn 0.000000 1.000000 0.000000
vn 0.000000 0.000000 1.000000
vn -0.885600 -0.365900 0.286000
vn -0.003400 -0.786500 0.617500
vn -0.000000 0.786700 -0.617300
vn -0.928500 -0.371400 -0.000400
vn -1.000000 0.000100 -0.000000
vn -1.000000 0.000100 -0.000100
vn 0.003400 -0.786500 0.617500
vn 0.000000 -1.000000 -0.000000
vn -0.000000 -0.528600 -0.848900
vn -0.000000 -0.528500 -0.848900
vn -0.000000 0.000500 -1.000000
vn -0.000000 0.471300 -0.882000
vn -0.000000 0.471500 -0.881800
vn 0.000000 0.471800 -0.881700
vn 0.000000 0.726500 -0.687200
vn 0.000000 0.726600 -0.687100
vn 0.000000 -0.738200 -0.674600
vn 0.000000 0.726700 -0.687000
vn -0.000200 -1.000000 -0.001600
vn -0.000400 -1.000000 -0.001200
vn -0.000000 -1.000000 -0.002000
vn 0.885600 -0.365900 0.286000
vn 0.928500 -0.371400 -0.000400
vn 1.000000 0.000100 -0.000100
vn 1.000000 0.000100 -0.000000
vn 0.000200 -1.000000 -0.001600
vn 0.000400 -1.000000 -0.001200
vn -0.000200 1.000000 0.001500
vn 0.000000 0.999400 -0.035900
vn 0.009000 1.000000 0.001400
vn 0.000500 1.000000 0.002900
vn 0.008700 1.000000 0.001500
vn 0.000000 1.000000 0.003000
vn 0.017300 0.999900 0.000000
vn 0.000000 0.693000 0.721000
vn 0.000000 -0.689000 -0.724800
vn 0.000000 -0.689000 -0.724700
vn -0.000000 1.000000 -0.000500
usemtl Grandstand_Wall_mtl
s 1
f 49/22/7 54/23/7 53/24/7 50/25/7
f 53/24/7 52/26/7 51/27/7 50/25/7
f 51/28/8 52/29/8 58/30/8 57/31/8
f 51/28/9 57/31/9 56/32/9 55/33/9
f 60/34/10 63/35/10 62/36/10 61/37/10
f 58/30/11 52/29/11 64/38/11 59/39/11
f 59/39/12 64/38/12 63/35/12 60/34/12
f 65/40/13 67/41/13 59/39/13 66/42/13
f 49/43/14 70/44/14 71/45/14 54/46/14
f 49/43/15 68/47/15 69/48/15 70/44/15
f 73/49/15 74/50/15 75/51/15 76/52/15
f 71/45/16 72/53/16 77/54/16 54/46/16
f 72/53/17 73/49/17 76/52/17 77/54/17
f 78/55/18 79/56/18 72/53/18 80/57/18
f 81/58/19 82/59/19 84/60/19 83/61/19
f 83/62/20 84/63/20 86/64/20 85/65/20
f 87/66/21 85/67/21 86/68/21 88/69/21
f 89/70/19 91/71/19 95/72/19 93/73/19
f 92/74/19 98/75/19 97/76/19 90/77/19
f 94/78/19 95/72/19 91/71/19 66/79/19
f 97/76/19 98/75/19 95/72/19 94/78/19
f 96/80/19 98/75/19 92/74/19 78/81/19
f 103/82/22 102/83/22 99/84/22 101/85/22
f 88/86/9 104/87/9 103/82/9 101/85/9 100/88/9
f 102/89/23 106/90/23 105/91/23 99/92/23
f 88/93/24 100/94/24 107/95/24 108/96/24
f 101/97/25 99/98/25 110/99/25 109/100/25
f 100/101/9 101/97/9 109/100/9 67/102/9
f 113/103/26 112/104/26 111/105/26 105/106/26
f 106/107/27 113/103/26 105/106/26
f 117/89/28 115/92/28 114/91/28 116/90/28
f 118/108/9 119/109/9 98/110/9 96/111/9
f 120/108/15 93/111/15 95/110/15 121/109/15
f 108/112/15 107/113/15 122/85/15 123/82/15 124/114/15
f 121/108/29 95/109/29 98/115/29 119/116/29
f 60/117/30 61/118/31 127/119/31 125/120/30
f 73/121/30 125/120/30 127/119/31 74/122/31
f 127/119/31 61/118/31 62/123/32 128/124/32
f 74/122/31 127/119/31 128/124/32 75/125/32
f 128/124/32 62/123/32 63/126/33 126/127/34
f 75/125/32 128/124/32 126/127/34 76/128/35
f 56/129/36 57/130/36 129/131/37 130/132/36
f 55/133/19 56/129/36 130/132/36 131/134/19
f 51/135/38 55/133/19 131/134/19 50/136/38
f 69/137/36 130/132/36 129/131/37 132/138/39
f 68/139/19 131/134/19 130/132/36 69/137/36
f 49/140/38 50/136/38 131/134/19 68/139/19
f 73/141/29 79/142/29 133/143/29 125/144/29
f 125/144/29 133/143/29 66/145/29 60/146/29
f 64/147/19 52/148/19 53/149/19 134/150/19
f 134/150/19 53/149/19 54/151/19 77/152/19
f 135/153/21 136/154/21 137/155/21 111/156/21
f 136/157/9 138/158/9 139/159/9 137/160/9
f 140/161/40 137/162/41 139/163/41 110/164/40
f 99/165/42 105/166/42 140/161/40 110/164/40
f 85/167/15 141/168/15 81/69/15 83/169/15
f 146/82/43 144/85/43 142/170/43 145/171/43
f 87/172/15 143/173/15 144/85/15 146/82/15 141/174/15
f 145/89/28 142/92/28 147/91/28 148/90/28
f 86/167/9 84/169/9 82/69/9 104/168/9
f 87/89/24 150/175/24 149/176/24 143/177/24
f 144/178/44 151/179/44 152/180/44 142/181/44
f 143/182/15 80/183/15 151/179/15 144/178/15
f 148/184/45 147/185/46 155/186/46
f 155/186/46 147/185/46 153/187/46 154/188/46
f 150/112/9 158/114/9 157/82/9 156/85/9 149/113/9
f 159/189/21 153/190/21 161/191/21 160/192/21
f 163/193/47 152/194/47 162/195/48 161/196/48
f 142/197/42 152/194/47 163/193/47 147/198/42
f 160/199/15 161/200/15 162/201/15 164/202/15
f 96/203/20 93/204/20 120/205/20 118/206/20
f 168/207/49 171/208/49 93/204/49 96/203/49
f 143/209/50 149/210/50 168/207/50
f 166/211/20 171/208/20 100/212/20
f 165/213/51 168/207/52 167/214/52 78/215/53
f 167/214/52 168/207/52 96/203/54
f 169/216/20 171/208/20 166/211/20 65/217/20
f 100/212/20 171/208/20 170/218/20
f 143/209/55 168/207/52 165/213/51
f 93/204/20 171/208/20 169/216/20
f 138/219/21 164/220/21 162/221/21 139/222/21
f 139/222/21 172/223/21 109/224/21 110/225/21
f 172/223/21 173/226/21 58/227/21 109/224/21
f 162/221/21 174/228/21 172/223/21 139/222/21
f 174/228/21 175/229/21 173/226/21 172/223/21
f 162/221/21 152/230/21 151/231/21 174/228/21
f 151/231/21 71/232/21 175/229/21 174/228/21
f 76/233/20 63/234/20 64/235/20 77/236/20
f 176/237/9 177/238/9 179/239/9 178/240/9
f 180/241/15 181/242/15 183/243/15 182/244/15
f 177/238/56 183/245/56 181/246/56 179/239/56
f 182/247/57 176/237/57 178/240/57 180/248/57
f 184/237/9 185/238/9 187/239/9 186/240/9
f 188/241/15 189/242/15 191/243/15 190/244/15
f 185/238/56 191/245/56 189/246/56 187/239/56
f 190/247/58 184/237/58 186/240/58 188/248/58
f 192/237/9 193/238/9 195/239/9 194/240/9
f 196/241/15 197/242/15 199/243/15 198/244/15
f 193/238/56 199/245/56 197/246/56 195/239/56
f 198/247/57 192/237/57 194/240/57 196/248/57
f 200/237/9 201/238/9 203/239/9 202/240/9
f 204/241/15 205/242/15 207/243/15 206/244/15
f 201/238/56 207/245/56 205/246/56 203/239/56
f 206/247/58 200/237/58 202/240/58 204/248/58
f 208/237/9 209/238/9 211/239/9 210/240/9
f 212/241/15 213/242/15 215/243/15 214/244/15
f 209/238/56 215/245/56 213/246/56 211/239/56
f 214/247/58 208/237/58 210/240/58 212/248/58
f 216/237/9 217/238/9 219/239/9 218/240/9
f 220/241/15 221/242/15 223/243/15 222/244/15
f 217/238/56 223/245/56 221/246/56 219/239/56
f 222/247/58 216/237/58 218/240/58 220/248/58
f 224/237/9 225/238/9 227/239/9 226/240/9
f 228/241/15 229/242/15 231/243/15 230/244/15
f 225/238/56 231/245/56 229/246/56 227/239/56
f 230/247/57 224/237/57 226/240/57 228/248/57
f 232/237/9 233/238/9 235/239/9 234/240/9
f 236/241/15 237/242/15 239/243/15 238/244/15
f 233/238/56 239/245/56 237/246/56 235/239/56
f 238/247/57 232/237/57 234/240/57 236/248/57
f 240/237/9 241/238/9 243/239/9 242/240/9
f 244/241/15 245/242/15 247/243/15 246/244/15
f 241/238/56 247/245/56 245/246/56 243/239/56
f 246/247/57 240/237/57 242/240/57 244/248/57
f 173/249/59 129/250/59 57/251/59 58/252/59
f 71/253/59 132/254/59 129/250/59 175/255/59
f 175/255/59 129/250/59 173/249/59
o Grandstands_Seats
v 0.094417 0.001743 -0.075895
v -0.097700 0.001743 -0.075895
v -0.097700 0.001476 -0.083333
v 0.094417 0.001476 -0.083333
v -0.097700 0.007416 -0.075762
v 0.094417 0.007416 -0.075762
v 0.094417 0.007684 -0.068328
v -0.097700 0.007684 -0.068328
v -0.097700 0.013654 -0.068198
v 0.094417 0.013654 -0.068157
v 0.094417 0.013654 -0.060720
v -0.097700 0.013654 -0.060753
v -0.097700 0.019297 -0.060620
v 0.094417 0.019297 -0.060620
v 0.094417 0.019564 -0.053182
v -0.097700 0.019564 -0.053182
v -0.097700 0.025237 -0.053048
v 0.094417 0.025237 -0.053048
v 0.094417 0.025504 -0.045611
v -0.097700 0.025504 -0.045611
v -0.097700 0.031177 -0.045477
v 0.094417 0.031177 -0.045477
v 0.094417 0.031445 -0.038040
v -0.097700 0.031445 -0.038040
v -0.097700 0.037118 -0.037906
v 0.094417 0.037118 -0.037906
v 0.094417 0.037385 -0.030468
v -0.097700 0.037385 -0.030468
v -0.097700 0.043058 -0.030335
v 0.094417 0.043058 -0.030335
v 0.094417 0.043325 -0.022897
v -0.097700 0.043325 -0.022897
v -0.097700 0.048998 -0.022763
v 0.094417 0.048998 -0.022763
v -0.097700 0.049039 -0.021642
v 0.094417 0.049039 -0.021642
vt 5.025366 0.500000
vt -1.243502 0.500000
vt -1.247815 0.000000
vt 5.025366 0.000000
vt 5.025366 1.000000
vt -1.247815 1.000000
vt -1.252127 0.529065
vt 5.025366 0.529065
vt -1.243502 0.529065
vt -1.252127 0.500000
vt 5.025366 0.079795
vt -1.247164 0.079795
vn 0.000000 0.999400 -0.035900
vn 0.000000 0.023600 -0.999700
vn 0.000100 0.025200 -0.999700
vn 0.000000 1.000000 0.000000
vn 0.000100 0.020800 -0.999800
usemtl Grandstand_Seats_mtl
s 1
f 249/256/60 248/257/60 251/258/60 250/259/60
f 252/260/61 253/261/61 248/262/61 249/263/61
f 255/263/60 254/264/60 253/258/60 252/259/60
f 256/260/62 257/261/62 254/262/62 255/263/62
f 259/263/63 258/264/63 257/258/63 256/259/63
f 260/260/64 261/261/64 258/262/64 259/263/64
f 263/263/60 262/264/60 261/258/60 260/259/60
f 264/260/61 265/261/61 262/262/61 263/263/61
f 267/263/60 266/264/60 265/258/60 264/259/60
f 268/260/61 269/261/61 266/262/61 267/263/61
f 271/263/60 270/264/60 269/258/60 268/259/60
f 272/260/61 273/261/61 270/262/61 271/263/61
f 275/263/60 274/264/60 273/258/60 272/259/60
f 276/260/61 277/261/61 274/262/61 275/263/61
f 279/263/60 278/264/60 277/258/60 276/259/60
f 280/260/61 281/261/61 278/265/61 279/256/61
f 282/266/60 283/267/60 281/258/60 280/259/60
