<?xml version="1.0" encoding="utf-8"?>
<!-- Generator: Adobe Illustrator 19.2.1, SVG Export Plug-In . SVG Version: 6.00 Build 0)  -->
<svg version="1.1" id="Layer_1" xmlns="http://www.w3.org/2000/svg" xmlns:xlink="http://www.w3.org/1999/xlink" x="0px" y="0px"
	 width="38.4px" height="24px" viewBox="0 0 38.4 24" style="enable-background:new 0 0 38.4 24;" xml:space="preserve">
<style type="text/css">
	.st0{fill:#ffffff;}
</style>
<title>Poly Header</title>
<desc>Created with Sketch.</desc>
<g>
	<path class="st0" d="M2,18H0V2.3h5.4c1.3,0,2.5,0.4,3.5,1.3c1,0.9,1.5,2,1.5,3.4c0,1.3-0.5,2.5-1.5,3.4s-2.1,1.3-3.5,1.3H2V18z
		 M2,9.7h3.4c0.8,0,1.5-0.3,2-0.8C7.9,8.3,8.2,7.7,8.2,7S7.9,5.7,7.4,5.1c-0.5-0.6-1.2-0.8-2-0.8H2V9.7z"/>
	<path class="st0" d="M11.6,8.5c1-1.1,2.4-1.6,4-1.6s2.9,0.6,4,1.6c1,1.1,1.6,2.5,1.6,4.1s-0.5,3-1.6,4.1c-1,1.1-2.4,1.6-4,1.6
		s-2.9-0.6-4-1.6c-1-1.1-1.6-2.5-1.6-4.1C10,11,10.5,9.6,11.6,8.5z M13.1,15.4c0.7,0.7,1.5,1.1,2.5,1.1c1,0,1.8-0.3,2.5-1.1
		c0.7-0.7,1-1.6,1-2.8c0-1.2-0.3-2.1-1-2.8c-0.7-0.7-1.5-1.1-2.5-1.1c-1,0-1.8,0.3-2.5,1.1c-0.7,0.7-1,1.6-1,2.8
		C12,13.8,12.4,14.8,13.1,15.4z"/>
	<path class="st0" d="M24.6,18h-2V2.3h2V18z"/>
	<path class="st0" d="M29.8,22.8h-2.1l2.5-5.4L25.7,7.3h2.2l3.2,7.7h0.1l3.1-7.7h2.2L29.8,22.8z"/>
</g>
</svg>
