<?xml version="1.0" encoding="UTF-8"?>
<svg width="64px" height="64px" viewBox="0 0 64 64" version="1.1" xmlns="http://www.w3.org/2000/svg" xmlns:xlink="http://www.w3.org/1999/xlink">
    <!-- Generator: Sketch 43.2 (39069) - http://www.bohemiancoding.com/sketch -->
    <title>Artboard 3</title>
    <desc>Created with Sketch.</desc>
    <defs></defs>
    <g id="Editor" stroke="none" stroke-width="1" fill="none" fill-rule="evenodd">
        <g id="Artboard-3">
            <g id="hand1">
                <polygon id="Shape" points="0 0 64 0 64 64 0 64"></polygon>
                <g id="Group" transform="translate(14.000000, 6.000000)">
                    <g id="Group-Copy" transform="translate(1.000000, 7.000000)">
                        <rect id="Rectangle-2" x="0" y="0" width="31" height="38"></rect>
                        <path d="M9.58248563,37.0769431 C10.2861239,38.2295166 11.5577287,39 13.0095579,39 L26.9904421,39 C29.1996477,39 31,37.2094838 31,35.00077 L31,22.99923 C31,20.7924676 29.2048598,19 26.9904421,19 L13.0095579,19 C13.0063711,19 13.0031851,19.0000037 13,19.0000112 L13,4.99079514 C13,3.89821238 12.1045695,3 11,3 C9.88772964,3 9,3.89130934 9,4.99079514 L9,22.999615 L9,28.0884573 L4.45949918,20.2240792 C3.91320781,19.2778747 2.68863605,18.9477153 1.73205081,19.5 C0.768796424,20.0561352 0.445654671,21.2718965 0.995397568,22.2240792 L9.50409845,36.9615814 C9.52763643,37.0023504 9.55387517,37.0408382 9.58248563,37.0769431 Z" id="Combined-Shape" fill="#757575"></path>
                    </g>
                    <g id="Group-2-Copy" fill-rule="nonzero" fill="#CCCCCC">
                        <polygon id="Shape-Copy-2" transform="translate(12.000000, 4.000000) scale(-1, 1) rotate(-90.000000) translate(-12.000000, -4.000000) " points="12.01 3 8 3 8 5 12.01 5 12.01 8 16 4 12.01 0"></polygon>
                        <polygon id="Shape-Copy-3" transform="translate(20.000000, 12.000000) scale(-1, 1) rotate(-180.000000) translate(-20.000000, -12.000000) " points="20.01 11 16 11 16 13 20.01 13 20.01 16 24 12 20.01 8"></polygon>
                        <polygon id="Shape-Copy-4" transform="translate(4.000000, 12.000000) scale(-1, 1) translate(-4.000000, -12.000000) " points="4.01 11 0 11 0 13 4.01 13 4.01 16 8 12 4.01 8"></polygon>
                    </g>
                </g>
            </g>
        </g>
    </g>
</svg>