# Blender v2.74 (sub 0) OBJ File: ''
# www.blender.org
mtllib grandstand3.mtl
o Grandstands_Concrete
v 0.096707 0.101191 -0.064225
v 0.000086 0.101191 -0.064225
v -0.099990 0.101191 -0.064225
v -0.099990 0.101230 -0.020791
v 0.000086 0.101230 -0.020791
v 0.096707 0.101230 -0.020791
v -0.099990 0.103501 -0.066753
v -0.099990 0.107125 -0.066753
v -0.099990 0.109517 -0.064225
v -0.100027 0.109556 0.013652
v -0.100027 0.075395 0.013652
v -0.099990 0.075395 -0.046360
v -0.099990 0.077493 -0.047667
v -0.099990 0.079941 -0.047666
v -0.099990 0.082390 -0.046357
v -0.099990 0.082390 -0.020791
v -0.100027 0.048998 -0.008283
v -0.099989 0.075395 -0.008283
v -0.100027 0.048998 0.013652
v 0.096707 0.103501 -0.066753
v 0.096707 0.107125 -0.066753
v 0.096707 0.109517 -0.064225
v 0.096744 0.109556 0.013652
v 0.096744 0.075395 0.013652
v 0.096707 0.075395 -0.046360
v 0.096707 0.077493 -0.047667
v 0.096707 0.079941 -0.047666
v 0.096707 0.082390 -0.046357
v 0.096707 0.082390 -0.020791
v 0.096744 0.048998 -0.008283
v 0.096707 0.075395 -0.008283
v 0.096744 0.048998 0.013652
v 0.096744 0.000064 -0.084910
v -0.100027 0.000064 -0.084910
v 0.096744 0.012225 -0.084910
v -0.100027 0.012225 -0.084910
v 0.096744 0.012225 -0.083333
v -0.100027 0.012225 -0.083333
v 0.096744 0.001476 -0.083333
v -0.100027 0.001476 -0.083333
v -0.099989 0.048998 -0.008283
v 0.096744 0.075395 -0.008283
v -0.099989 0.071702 -0.008283
v 0.096744 0.071702 -0.008283
v -0.011436 0.048998 -0.008283
v -0.011436 0.075395 -0.008283
v -0.011436 0.071702 -0.008283
v 0.011689 0.048998 -0.008283
v 0.011689 0.075395 -0.008283
v 0.011689 0.071702 -0.008283
v -0.097488 0.036364 -0.022763
v -0.100027 0.048998 -0.022763
v -0.100027 0.042677 -0.022763
v -0.097382 0.000131 -0.068997
v -0.100027 0.000064 -0.077059
v -0.100027 0.000064 -0.083333
v -0.082517 0.036364 -0.022764
v -0.082517 0.000000 -0.068997
v -0.097700 0.048998 -0.022764
v -0.097700 0.001476 -0.083333
v -0.100027 0.042677 0.013652
v -0.097488 0.036293 0.013652
v -0.082517 0.036293 -0.000000
v -0.082521 0.000000 -0.000000
v -0.082520 0.000000 -0.022760
v 0.079234 0.036364 -0.024340
v 0.094205 0.036364 -0.024340
v 0.079234 0.000000 -0.070574
v 0.094099 0.000131 -0.070574
v 0.011689 0.048998 0.012569
v 0.011689 0.071702 0.012569
v -0.011436 0.048998 0.012569
v -0.011436 0.071702 0.012569
v -0.097700 0.043325 -0.022897
v -0.097700 0.000064 -0.077060
v -0.097700 0.000064 -0.083333
v 0.000086 0.075395 -0.046364
v 0.000086 0.082390 -0.046357
v 0.000086 0.077493 -0.047670
v 0.000086 0.079941 -0.047669
v 0.000086 0.109517 -0.064225
v 0.000086 0.107125 -0.066753
v 0.000086 0.103501 -0.066753
v 0.096707 0.109517 -0.064222
v 0.000086 0.075395 -0.008286
v 0.000086 0.082390 -0.020791
v -0.082517 0.000000 -0.000000
v -0.052991 0.000000 -0.000000
v -0.052991 0.036293 -0.000000
v -0.052991 0.000000 0.013652
v -0.052991 0.036293 0.013652
v -0.082517 0.036320 -0.000010
v 0.096744 0.000064 -0.083333
v 0.094205 0.036364 -0.022764
v 0.096744 0.048998 -0.022763
v 0.096744 0.042677 -0.022763
v 0.094099 0.000131 -0.068997
v 0.096744 0.000064 -0.077060
v 0.079234 0.036364 -0.022764
v 0.079234 0.000000 -0.068997
v 0.094417 0.048998 -0.022763
v 0.094417 0.001476 -0.083333
v 0.096744 0.042677 0.013652
v 0.094205 0.036293 0.013652
v 0.079234 0.036293 -0.000000
v 0.079238 0.000000 -0.000000
v 0.079237 0.000000 -0.022540
v 0.094417 0.043325 -0.022897
v 0.094417 0.000064 -0.077059
v 0.094417 0.000064 -0.083333
v 0.079234 0.000000 0.000000
v 0.049708 0.000000 -0.000000
v 0.049708 0.036293 -0.000000
v 0.049708 0.036293 0.013652
v 0.079234 0.036320 -0.000010
v 0.049708 0.000000 0.013652
v 0.096744 0.048998 -0.021649
v -0.100027 0.048998 -0.021649
v 0.094417 0.048998 -0.008283
v 0.094417 0.049039 -0.021642
v -0.097714 0.048998 -0.008283
v -0.097714 0.048998 -0.022763
v -0.097714 0.048998 -0.021649
v -0.052991 0.042677 0.013652
v -0.052997 0.109556 0.013651
v 0.049708 0.042677 0.013652
v 0.049668 0.109556 0.013651
v -0.075744 0.082390 -0.046199
v -0.075744 0.082390 -0.044745
v -0.075744 0.101204 -0.064086
v -0.075744 0.101204 -0.062829
v -0.074874 0.101204 -0.064086
v -0.074874 0.101204 -0.062829
v -0.074874 0.082390 -0.046199
v -0.074874 0.082390 -0.044745
v -0.099960 0.082390 -0.046199
v -0.099960 0.082390 -0.044745
v -0.099960 0.101204 -0.064086
v -0.099960 0.101204 -0.062829
v -0.099089 0.101204 -0.064086
v -0.099089 0.101204 -0.062829
v -0.099089 0.082390 -0.046199
v -0.099089 0.082390 -0.044745
v -0.050983 0.082390 -0.046199
v -0.050983 0.082390 -0.044745
v -0.050983 0.101204 -0.064086
v -0.050983 0.101204 -0.062829
v -0.050113 0.101204 -0.064086
v -0.050113 0.101204 -0.062829
v -0.050113 0.082390 -0.046199
v -0.050113 0.082390 -0.044745
v -0.026737 0.082390 -0.046199
v -0.026737 0.082390 -0.044745
v -0.026737 0.101204 -0.064086
v -0.026737 0.101204 -0.062829
v -0.025867 0.101204 -0.064086
v -0.025867 0.101204 -0.062829
v -0.025867 0.082390 -0.046199
v -0.025867 0.082390 -0.044745
v -0.001976 0.082390 -0.046199
v -0.001976 0.082390 -0.044745
v -0.001976 0.101204 -0.064086
v -0.001976 0.101204 -0.062829
v -0.001106 0.101204 -0.064086
v -0.001106 0.101204 -0.062829
v -0.001106 0.082390 -0.046199
v -0.001106 0.082390 -0.044745
v 0.022527 0.082390 -0.046199
v 0.022527 0.082390 -0.044745
v 0.022527 0.101204 -0.064086
v 0.022527 0.101204 -0.062829
v 0.023398 0.101204 -0.064086
v 0.023398 0.101204 -0.062829
v 0.023398 0.082390 -0.046199
v 0.023398 0.082390 -0.044745
v 0.047187 0.082390 -0.046199
v 0.047187 0.082390 -0.044745
v 0.047187 0.101204 -0.064086
v 0.047187 0.101204 -0.062829
v 0.048058 0.101204 -0.064086
v 0.048058 0.101204 -0.062829
v 0.048058 0.082390 -0.046199
v 0.048058 0.082390 -0.044745
v 0.071948 0.082390 -0.046199
v 0.071948 0.082390 -0.044745
v 0.071948 0.101204 -0.064086
v 0.071948 0.101204 -0.062829
v 0.072819 0.101204 -0.064086
v 0.072819 0.101204 -0.062829
v 0.072819 0.082390 -0.046199
v 0.072819 0.082390 -0.044745
v 0.095718 0.082390 -0.046199
v 0.095718 0.082390 -0.044745
v 0.095718 0.101204 -0.064086
v 0.095718 0.101204 -0.062829
v 0.096589 0.101204 -0.064086
v 0.096589 0.101204 -0.062829
v 0.096589 0.082390 -0.046199
v 0.096589 0.082390 -0.044745
vt 0.000000 0.000000
vt 0.524111 0.276812
vt 0.522256 0.276812
vt 0.522251 0.140475
vt 0.524107 0.140475
vt 0.524111 0.004139
vt 0.522256 0.004138
vt 0.513447 0.141345
vt 0.513447 0.005009
vt 0.516924 0.005009
vt 0.516924 0.141345
vt 0.513447 0.277682
vt 0.516924 0.277682
vt 0.520401 0.005009
vt 0.520401 0.141345
vt 0.987906 0.141741
vt 0.987906 0.005404
vt 0.991383 0.005404
vt 0.991383 0.141741
vt 0.508180 0.004909
vt 0.511576 0.004909
vt 0.511576 0.141246
vt 0.508180 0.141246
vt 0.503031 0.004909
vt 0.503031 0.141246
vt 0.499751 0.004909
vt 0.499751 0.141246
vt 0.508180 0.277583
vt 0.511576 0.277583
vt 0.503031 0.277583
vt 0.499751 0.277583
vn 0.000000 -1.000000 0.000900
vn -1.000000 -0.001600 -0.000300
vn -1.000000 0.000000 0.000000
vn -1.000000 0.000000 0.000100
vn -1.000000 -0.000000 -0.001100
vn -1.000000 0.001500 -0.000400
vn -1.000000 0.000700 -0.000900
vn 1.000000 -0.001600 -0.000300
vn 1.000000 0.000000 0.000000
vn 1.000000 -0.000000 -0.001100
vn 1.000000 0.001600 -0.000400
vn 1.000000 0.000700 -0.000900
vn 0.000000 0.000000 -1.000000
vn 0.000000 1.000000 0.000000
vn 0.000000 0.000000 1.000000
vn -0.885600 -0.365900 0.286000
vn -0.003400 -0.786500 0.617500
vn -0.000000 0.786700 -0.617300
vn -0.928500 -0.371400 -0.000400
vn -1.000000 0.000100 -0.000000
vn -1.000000 0.000100 -0.000100
vn 0.003400 -0.786500 0.617500
vn 0.000000 -1.000000 -0.000000
vn -0.000000 -0.528600 -0.848900
vn -0.000000 -0.528500 -0.848900
vn -0.000000 0.000500 -1.000000
vn -0.000000 0.471300 -0.882000
vn -0.000000 0.471500 -0.881800
vn 0.000000 0.471800 -0.881700
vn 0.000000 0.726500 -0.687200
vn 0.000000 0.726600 -0.687100
vn 0.000000 -0.738200 -0.674600
vn 0.000000 0.726700 -0.687000
vn -0.000200 -1.000000 -0.001600
vn -0.000400 -1.000000 -0.001200
vn -0.000000 -1.000000 -0.002000
vn 0.885600 -0.365900 0.286000
vn 0.928500 -0.371400 -0.000400
vn 1.000000 0.000100 -0.000100
vn 1.000000 0.000100 -0.000000
vn 0.000200 -1.000000 -0.001600
vn 0.000400 -1.000000 -0.001200
vn -0.000200 1.000000 0.001500
vn 0.000000 0.999400 -0.035900
vn 0.009000 1.000000 0.001400
vn 0.000500 1.000000 0.002900
vn 0.008700 1.000000 0.001500
vn 0.000000 1.000000 0.003000
vn 0.017300 0.999900 0.000000
vn 0.000000 0.693000 0.721000
vn 0.000000 -0.689000 -0.724800
vn 0.000000 -0.689000 -0.724700
vn -0.000000 1.000000 -0.000500
usemtl Grandstand_Wall_mtl
s 1
f 1/1/1 6/1/1 5/1/1 2/1/1
f 5/1/1 4/1/1 3/1/1 2/1/1
f 3/1/2 4/1/2 10/1/2 9/1/2
f 3/1/3 9/1/3 8/1/3 7/1/3
f 12/1/4 15/1/4 14/1/4 13/1/4
f 10/1/5 4/1/5 16/1/5 11/1/5
f 11/1/6 16/1/6 15/1/6 12/1/6
f 17/1/7 19/1/7 11/1/7 18/1/7
f 1/1/8 22/1/8 23/1/8 6/1/8
f 1/1/9 20/1/9 21/1/9 22/1/9
f 25/1/9 26/1/9 27/1/9 28/1/9
f 23/1/10 24/1/10 29/1/10 6/1/10
f 24/1/11 25/1/11 28/1/11 29/1/11
f 30/1/12 31/1/12 24/1/12 32/1/12
f 33/1/13 34/1/13 36/1/13 35/1/13
f 35/1/14 36/1/14 38/1/14 37/1/14
f 39/1/15 37/1/15 38/1/15 40/1/15
f 41/1/13 43/1/13 47/1/13 45/1/13
f 44/1/13 50/1/13 49/1/13 42/1/13
f 46/1/13 47/1/13 43/1/13 18/1/13
f 49/1/13 50/1/13 47/1/13 46/1/13
f 48/1/13 50/1/13 44/1/13 30/1/13
f 55/1/16 54/1/16 51/1/16 53/1/16
f 40/1/3 56/1/3 55/1/3 53/1/3 52/1/3
f 54/1/17 58/1/17 57/1/17 51/1/17
f 40/1/18 52/1/18 59/1/18 60/1/18
f 53/1/19 51/1/19 62/1/19 61/1/19
f 52/1/3 53/1/3 61/1/3 19/1/3
f 65/1/20 64/1/20 63/1/20 57/1/20
f 58/1/21 65/1/20 57/1/20
f 69/1/22 67/1/22 66/1/22 68/1/22
f 70/1/3 71/1/3 50/1/3 48/1/3
f 72/1/9 45/1/9 47/1/9 73/1/9
f 60/1/9 59/1/9 74/1/9 75/1/9 76/1/9
f 73/1/23 47/1/23 50/1/23 71/1/23
f 12/2/24 13/3/25 79/4/25 77/5/24
f 25/6/24 77/5/24 79/4/25 26/7/25
f 79/8/25 13/9/25 14/10/26 80/11/26
f 26/12/25 79/8/25 80/11/26 27/13/26
f 80/11/26 14/10/26 15/14/27 78/15/28
f 27/16/26 80/17/26 78/18/28 28/19/29
f 8/20/30 9/21/30 81/22/31 82/23/30
f 7/24/13 8/20/30 82/23/30 83/25/13
f 3/26/32 7/24/13 83/25/13 2/27/32
f 21/28/30 82/23/30 81/22/31 84/29/33
f 20/30/13 83/25/13 82/23/30 21/28/30
f 1/31/32 2/27/32 83/25/13 20/30/13
f 25/1/23 31/1/23 85/1/23 77/1/23
f 77/1/23 85/1/23 18/1/23 12/1/23
f 16/1/13 4/1/13 5/1/13 86/1/13
f 86/1/13 5/1/13 6/1/13 29/1/13
f 87/1/15 88/1/15 89/1/15 63/1/15
f 88/1/3 90/1/3 91/1/3 89/1/3
f 92/1/34 89/1/35 91/1/35 62/1/34
f 51/1/36 57/1/36 92/1/34 62/1/34
f 37/1/9 93/1/9 33/1/9 35/1/9
f 98/1/37 96/1/37 94/1/37 97/1/37
f 39/1/9 95/1/9 96/1/9 98/1/9 93/1/9
f 97/1/22 94/1/22 99/1/22 100/1/22
f 38/1/3 36/1/3 34/1/3 56/1/3
f 39/1/18 102/1/18 101/1/18 95/1/18
f 96/1/38 103/1/38 104/1/38 94/1/38
f 95/1/9 32/1/9 103/1/9 96/1/9
f 100/1/39 99/1/40 107/1/40
f 107/1/40 99/1/40 105/1/40 106/1/40
f 102/1/3 110/1/3 109/1/3 108/1/3 101/1/3
f 111/1/15 105/1/15 113/1/15 112/1/15
f 115/1/41 104/1/41 114/1/42 113/1/42
f 94/1/36 104/1/41 115/1/41 99/1/36
f 112/1/9 113/1/9 114/1/9 116/1/9
f 48/1/14 45/1/14 72/1/14 70/1/14
f 120/1/43 123/1/43 45/1/43 48/1/43
f 95/1/44 101/1/44 120/1/44
f 118/1/14 123/1/14 52/1/14
f 117/1/45 120/1/46 119/1/46 30/1/47
f 119/1/46 120/1/46 48/1/48
f 121/1/14 123/1/14 118/1/14 17/1/14
f 52/1/14 123/1/14 122/1/14
f 95/1/49 120/1/46 117/1/45
f 45/1/14 123/1/14 121/1/14
f 90/1/15 116/1/15 114/1/15 91/1/15
f 91/1/15 124/1/15 61/1/15 62/1/15
f 124/1/15 125/1/15 10/1/15 61/1/15
f 114/1/15 126/1/15 124/1/15 91/1/15
f 126/1/15 127/1/15 125/1/15 124/1/15
f 114/1/15 104/1/15 103/1/15 126/1/15
f 103/1/15 23/1/15 127/1/15 126/1/15
f 28/1/14 15/1/14 16/1/14 29/1/14
f 128/1/3 129/1/3 131/1/3 130/1/3
f 132/1/9 133/1/9 135/1/9 134/1/9
f 129/1/50 135/1/50 133/1/50 131/1/50
f 134/1/51 128/1/51 130/1/51 132/1/51
f 136/1/3 137/1/3 139/1/3 138/1/3
f 140/1/9 141/1/9 143/1/9 142/1/9
f 137/1/50 143/1/50 141/1/50 139/1/50
f 142/1/52 136/1/52 138/1/52 140/1/52
f 144/1/3 145/1/3 147/1/3 146/1/3
f 148/1/9 149/1/9 151/1/9 150/1/9
f 145/1/50 151/1/50 149/1/50 147/1/50
f 150/1/51 144/1/51 146/1/51 148/1/51
f 152/1/3 153/1/3 155/1/3 154/1/3
f 156/1/9 157/1/9 159/1/9 158/1/9
f 153/1/50 159/1/50 157/1/50 155/1/50
f 158/1/52 152/1/52 154/1/52 156/1/52
f 160/1/3 161/1/3 163/1/3 162/1/3
f 164/1/9 165/1/9 167/1/9 166/1/9
f 161/1/50 167/1/50 165/1/50 163/1/50
f 166/1/52 160/1/52 162/1/52 164/1/52
f 168/1/3 169/1/3 171/1/3 170/1/3
f 172/1/9 173/1/9 175/1/9 174/1/9
f 169/1/50 175/1/50 173/1/50 171/1/50
f 174/1/52 168/1/52 170/1/52 172/1/52
f 176/1/3 177/1/3 179/1/3 178/1/3
f 180/1/9 181/1/9 183/1/9 182/1/9
f 177/1/50 183/1/50 181/1/50 179/1/50
f 182/1/51 176/1/51 178/1/51 180/1/51
f 184/1/3 185/1/3 187/1/3 186/1/3
f 188/1/9 189/1/9 191/1/9 190/1/9
f 185/1/50 191/1/50 189/1/50 187/1/50
f 190/1/51 184/1/51 186/1/51 188/1/51
f 192/1/3 193/1/3 195/1/3 194/1/3
f 196/1/9 197/1/9 199/1/9 198/1/9
f 193/1/50 199/1/50 197/1/50 195/1/50
f 198/1/51 192/1/51 194/1/51 196/1/51
f 125/1/53 81/1/53 9/1/53 10/1/53
f 23/1/53 84/1/53 81/1/53 127/1/53
f 127/1/53 81/1/53 125/1/53
o Grandstands_Side_Fence
v 0.095368 0.000766 -0.083333
v 0.095368 0.048289 -0.022763
v 0.095368 0.048289 -0.007653
v 0.095368 0.011515 -0.083333
v 0.095368 0.059037 -0.022763
v 0.095368 0.059037 -0.007653
v 0.095368 0.035949 -0.052674
v 0.095368 0.025200 -0.052674
v -0.098651 0.000766 -0.083333
v -0.098651 0.048289 -0.022763
v -0.098651 0.048289 -0.007653
v -0.098651 0.011515 -0.083333
v -0.098651 0.059037 -0.022763
v -0.098651 0.059037 -0.007653
v -0.098651 0.035949 -0.052674
v -0.098651 0.025200 -0.052674
v 0.095368 0.000766 -0.083333
v 0.095368 0.048289 -0.022763
v 0.095368 0.048289 -0.007653
v 0.095368 0.011515 -0.083333
v 0.095368 0.059037 -0.022763
v 0.095368 0.059037 -0.007653
v 0.095368 0.035949 -0.052674
v 0.095368 0.025200 -0.052674
v -0.098651 0.000766 -0.083333
v -0.098651 0.048289 -0.022763
v -0.098651 0.048289 -0.007653
v -0.098651 0.011515 -0.083333
v -0.098651 0.059037 -0.022763
v -0.098651 0.059037 -0.007653
v -0.098651 0.035949 -0.052674
v -0.098651 0.025200 -0.052674
vt 0.812280 0.340161
vt 0.846982 0.298393
vt 0.859384 0.298393
vt 0.824682 0.340161
vt 0.846982 0.278827
vt 0.859384 0.278827
vt 0.777578 0.381928
vt 0.789979 0.381928
vn 1.000000 0.000000 -0.000000
vn -1.000000 0.000000 -0.000000
usemtl Grandstand_Fence_mtl
s 1
f 207/32/54 201/33/54 204/34/54 206/35/54
f 201/33/54 202/36/54 205/37/54 204/34/54
f 200/38/54 207/32/54 206/35/54 203/39/54
f 215/32/55 214/35/55 212/34/55 209/33/55
f 209/33/55 212/34/55 213/37/55 210/36/55
f 208/38/55 211/39/55 214/35/55 215/32/55
f 223/32/54 222/35/54 220/34/54 217/33/54
f 217/33/54 220/34/54 221/37/54 218/36/54
f 216/38/54 219/39/54 222/35/54 223/32/54
f 231/32/55 225/33/55 228/34/55 230/35/55
f 225/33/55 226/36/55 229/37/55 228/34/55
f 224/38/55 231/32/55 230/35/55 227/39/55
o Grandstands_Door
v -0.011436 0.048998 0.012569
v -0.011436 0.071702 0.012569
v 0.011689 0.048998 0.012569
v 0.011689 0.071702 0.012569
vt -0.000000 0.000000
vt -0.000000 1.000000
vt 1.000000 1.000000
vt 0.999999 0.000000
vn 0.000000 0.000000 -1.000000
usemtl Grandstand_Door_mtl
s 1
f 232/40/56 233/41/56 235/42/56 234/43/56
o Grandstands_Glass
v -0.099990 0.101191 -0.064225
v -0.099990 0.101230 -0.020791
v -0.099990 0.082390 -0.020791
v -0.099990 0.082390 -0.046357
v 0.096707 0.082390 -0.046357
v 0.096707 0.101191 -0.064225
v 0.000086 0.101191 -0.064225
v 0.000086 0.082390 -0.046357
v 0.096707 0.101191 -0.064225
v 0.096707 0.101230 -0.020791
v 0.096707 0.082390 -0.020791
v 0.096707 0.082390 -0.046357
vt 0.000000 0.000000
vt 0.410993 0.433242
vt 0.999622 0.433761
vt 1.000000 0.000000
vt 0.000016 0.499999
vt 0.129593 0.500000
vt 0.129588 0.000000
vt 0.000000 0.999997
vt 0.129587 1.000000
vn -1.000000 -0.000000 0.000000
vn 0.000000 -0.688900 -0.724900
vn 1.000000 -0.000000 0.000000
usemtl Grandstand_Glass_mtl
s 1
f 236/44/57 239/45/57 238/46/57 237/47/57
f 240/44/58 243/48/58 242/49/58 241/50/58
f 243/48/58 239/51/58 236/52/58 242/49/58
f 244/44/59 245/47/59 246/46/59 247/45/59
o Grandstands_Seats
v 0.094417 0.001743 -0.075895
v -0.097700 0.001743 -0.075895
v -0.097700 0.001476 -0.083333
v 0.094417 0.001476 -0.083333
v -0.097700 0.007416 -0.075762
v 0.094417 0.007416 -0.075762
v 0.094417 0.007684 -0.068328
v -0.097700 0.007684 -0.068328
v -0.097700 0.013654 -0.068198
v 0.094417 0.013654 -0.068157
v 0.094417 0.013654 -0.060720
v -0.097700 0.013654 -0.060753
v -0.097700 0.019297 -0.060620
v 0.094417 0.019297 -0.060620
v 0.094417 0.019564 -0.053182
v -0.097700 0.019564 -0.053182
v -0.097700 0.025237 -0.053048
v 0.094417 0.025237 -0.053048
v 0.094417 0.025504 -0.045611
v -0.097700 0.025504 -0.045611
v -0.097700 0.031177 -0.045477
v 0.094417 0.031177 -0.045477
v 0.094417 0.031445 -0.038040
v -0.097700 0.031445 -0.038040
v -0.097700 0.037118 -0.037906
v 0.094417 0.037118 -0.037906
v 0.094417 0.037385 -0.030468
v -0.097700 0.037385 -0.030468
v -0.097700 0.043058 -0.030335
v 0.094417 0.043058 -0.030335
v 0.094417 0.043325 -0.022897
v -0.097700 0.043325 -0.022897
v -0.097700 0.048998 -0.022763
v 0.094417 0.048998 -0.022763
v -0.097700 0.049039 -0.021642
v 0.094417 0.049039 -0.021642
vt 5.025366 0.500000
vt -1.243502 0.500000
vt -1.247815 0.000000
vt 5.025366 0.000000
vt 5.025366 1.000000
vt -1.247815 1.000000
vt -1.252127 0.529065
vt 5.025366 0.529065
vt -1.243502 0.529065
vt -1.252127 0.500000
vt 5.025366 0.079795
vt -1.247164 0.079795
vn 0.000000 0.999400 -0.035900
vn 0.000000 0.023600 -0.999700
vn 0.000100 0.025200 -0.999700
vn 0.000000 1.000000 0.000000
vn 0.000100 0.020800 -0.999800
usemtl Grandstand_Seats_mtl
s 1
f 249/53/60 248/54/60 251/55/60 250/56/60
f 252/57/61 253/58/61 248/59/61 249/60/61
f 255/60/60 254/61/60 253/55/60 252/56/60
f 256/57/62 257/58/62 254/59/62 255/60/62
f 259/60/63 258/61/63 257/55/63 256/56/63
f 260/57/64 261/58/64 258/59/64 259/60/64
f 263/60/60 262/61/60 261/55/60 260/56/60
f 264/57/61 265/58/61 262/59/61 263/60/61
f 267/60/60 266/61/60 265/55/60 264/56/60
f 268/57/61 269/58/61 266/59/61 267/60/61
f 271/60/60 270/61/60 269/55/60 268/56/60
f 272/57/61 273/58/61 270/59/61 271/60/61
f 275/60/60 274/61/60 273/55/60 272/56/60
f 276/57/61 277/58/61 274/59/61 275/60/61
f 279/60/60 278/61/60 277/55/60 276/56/60
f 280/57/61 281/58/61 278/62/61 279/53/61
f 282/63/60 283/64/60 281/55/60 280/56/60
