# 3ds Max Wavefront OBJ Exporter v0.97b - (c)2007 guruware
# File Created: 02.05.2018 13:27:18

mtllib main_bottom.mtl

#
# object east_wall
#

v  -15.6754169464 -0.1136455536 16.9985733032
v  -15.6754169464 7.4831604958 16.9985733032
v  36.7692031860 7.4831604958 16.9985733032
v  36.7692031860 -0.1136455536 16.9985733032
v  -15.6754169464 -0.1136455536 17.3984050751
v  36.7692031860 -0.1136455536 17.3984050751
v  36.7692031860 7.4831604958 17.3984050751
v  -15.6754169464 7.4831604958 17.3984050751
# 8 vertices

vn -0.5773502588 -0.5773501396 -0.5773503780
vn -0.5773502588 0.5773503780 -0.5773501396
vn 0.5773502588 0.5773503780 -0.5773501396
vn 0.5773502588 -0.5773501396 -0.5773503780
vn -0.5773502588 -0.5773503780 0.5773501396
vn 0.5773502588 -0.5773503780 0.5773501396
vn 0.5773502588 0.5773501396 0.5773503780
vn -0.5773502588 0.5773501396 0.5773503780
# 8 vertex normals

vt 0.9720227718 0.9243485928 0.0000000000
vt 0.8520912528 0.9241994619 0.0000000000
vt 0.8530563712 0.1483605951 0.0000000000
vt 0.9729878902 0.1485097259 0.0000000000
vt 1.0855747461 0.1148469746 0.0000000000
vt 1.3219769001 0.1148469746 0.0000000000
vt 1.3219769001 0.3512491584 0.0000000000
vt 1.0855747461 0.3512491584 0.0000000000
vt -0.1464424729 0.4457965195 0.0000000000
vt -0.1114079356 0.4457965195 0.0000000000
vt -0.1114079356 0.4808310270 0.0000000000
vt -0.1464424729 0.4808310270 0.0000000000
# 12 texture coords

o east_wall
g east_wall
usemtl 14___Default
s 2
f 1/1/1 2/2/2 3/3/3 4/4/4 
s 4
f 5/4/5 6/1/6 7/2/7 8/3/8 
s 8
f 1/5/1 4/6/4 6/7/6 5/8/5 
s 16
f 4/9/4 3/10/3 7/11/7 6/12/6 
s 32
f 3/5/3 2/6/2 8/7/8 7/8/7 
s 64
f 2/9/2 1/10/1 5/11/5 8/12/8 
# 6 polygons

#
# object floor
#

v  -16.4441413879 -0.5149755478 20.2349357605
v  -16.4441413879 -0.5149755478 -14.6686096191
v  37.7135047913 -0.5149755478 -14.6686096191
v  37.7135047913 -0.5149755478 20.2349357605
v  -16.4441413879 -0.0167455077 20.2349357605
v  37.7135047913 -0.0167455077 20.2349357605
v  37.7135047913 -0.0167455077 -14.6686096191
v  -16.4441413879 -0.0167455077 -14.6686096191
# 8 vertices

vn -0.5773502588 -0.5773502588 0.5773502588
vn -0.5773502588 -0.5773502588 -0.5773502588
vn 0.5773502588 -0.5773502588 -0.5773502588
vn 0.5773502588 -0.5773502588 0.5773502588
vn -0.5773502588 0.5773502588 0.5773502588
vn 0.5773502588 0.5773502588 0.5773502588
vn 0.5773502588 0.5773502588 -0.5773502588
vn -0.5773502588 0.5773502588 -0.5773502588
# 8 vertex normals

vt 0.6259076595 0.0277700108 0.0000000000
vt 0.6259076595 0.3750730157 0.0000000000
vt 0.0272150207 0.3750730157 0.0000000000
vt 0.0272150207 0.0277700108 0.0000000000
vt -0.4824421406 0.6493282318 0.0000000000
vt -0.1341423690 0.6493282318 0.0000000000
vt -0.1341423690 0.9864979982 0.0000000000
vt -0.4824421406 0.9864979982 0.0000000000
vt -0.4229411185 0.2231086195 0.0000000000
vt -0.2005321383 0.2231086195 0.0000000000
vt -0.2005321383 0.4455175698 0.0000000000
vt -0.4229411185 0.4455175698 0.0000000000
# 12 texture coords

o floor
g floor
usemtl 14___Default
s 2
f 9/13/9 10/14/10 11/15/11 12/16/12 
s 4
f 13/16/13 14/13/14 15/14/15 16/15/16 
s 8
f 9/17/9 12/18/12 14/19/14 13/20/13 
s 16
f 12/21/12 11/22/11 15/23/15 14/24/14 
s 32
f 11/17/11 10/18/10 16/19/16 15/20/15 
s 64
f 10/21/10 9/22/9 13/23/13 16/24/16 
# 6 polygons

#
# object north_wall
#

v  33.9880104065 -0.1538114548 19.1847782135
v  33.9880104065 -0.1538114548 -13.0495548248
v  34.5002937317 -0.1538114548 -13.0495548248
v  34.5002937317 -0.1538114548 19.1847782135
v  33.9880104065 7.5698184967 19.1847782135
v  34.5002937317 7.5698184967 19.1847782135
v  34.5002937317 7.5698184967 -13.0495548248
v  33.9880104065 7.5698184967 -13.0495548248
# 8 vertices

vn -0.5773502588 -0.5773502588 0.5773502588
vn -0.5773502588 -0.5773502588 -0.5773502588
vn 0.5773502588 -0.5773502588 -0.5773502588
vn 0.5773502588 -0.5773502588 0.5773502588
vn -0.5773502588 0.5773502588 0.5773502588
vn 0.5773502588 0.5773502588 0.5773502588
vn 0.5773502588 0.5773502588 -0.5773502588
vn -0.5773502588 0.5773502588 -0.5773502588
# 8 vertex normals

vt -0.0917064548 0.7479016781 0.0000000000
vt -0.0917064548 0.8977119327 0.0000000000
vt -0.2415166497 0.8977119327 0.0000000000
vt -0.2415166497 0.7479016781 0.0000000000
vt -0.1464424729 0.3729223013 0.0000000000
vt -0.1096116900 0.3729223013 0.0000000000
vt -0.1096116900 0.4097530246 0.0000000000
vt -0.1464424729 0.4097530246 0.0000000000
vt 0.0434927195 0.8100032806 0.0000000000
vt 0.5896826386 0.8100032806 0.0000000000
vt 0.5896826386 0.9706621170 0.0000000000
vt 0.0434927195 0.9706621170 0.0000000000
# 12 texture coords

o north_wall
g north_wall
usemtl 14___Default
s 2
f 17/25/17 18/26/18 19/27/19 20/28/20 
s 4
f 21/28/21 22/25/22 23/26/23 24/27/24 
s 8
f 17/29/17 20/30/20 22/31/22 21/32/21 
s 16
f 20/33/20 19/34/19 23/35/23 22/36/22 
s 32
f 19/29/19 18/30/18 24/31/24 23/32/23 
s 64
f 18/33/18 17/34/17 21/35/21 24/36/24 
# 6 polygons

#
# object south_wall
#

v  -13.7788276672 -0.1538114548 19.1847782135
v  -13.7788276672 -0.1538114548 -13.0495548248
v  -13.2665443420 -0.1538114548 -13.0495548248
v  -13.2665443420 -0.1538114548 19.1847782135
v  -13.7788276672 7.5698184967 19.1847782135
v  -13.2665443420 7.5698184967 19.1847782135
v  -13.2665443420 7.5698184967 -13.0495548248
v  -13.7788276672 7.5698184967 -13.0495548248
# 8 vertices

vn -0.5773502588 -0.5773502588 0.5773502588
vn -0.5773502588 -0.5773502588 -0.5773502588
vn 0.5773502588 -0.5773502588 -0.5773502588
vn 0.5773502588 -0.5773502588 0.5773502588
vn -0.5773502588 0.5773502588 0.5773502588
vn 0.5773502588 0.5773502588 0.5773502588
vn 0.5773502588 0.5773502588 -0.5773502588
vn -0.5773502588 0.5773502588 -0.5773502588
# 8 vertex normals

vt -0.1344149709 0.5767130256 0.0000000000
vt -0.1344149709 0.7265232801 0.0000000000
vt -0.2842252254 0.7265232801 0.0000000000
vt -0.2842252254 0.5767130256 0.0000000000
vt -0.1470819116 0.3160901666 0.0000000000
vt -0.1102512479 0.3160901666 0.0000000000
vt -0.1102512479 0.3529209197 0.0000000000
vt -0.1470819116 0.3529209197 0.0000000000
vt 0.0477607697 0.6165897250 0.0000000000
vt 0.6253469586 0.6165897250 0.0000000000
vt 0.6253469586 0.7851184011 0.0000000000
vt 0.0477607697 0.7851184011 0.0000000000
# 12 texture coords

o south_wall
g south_wall
usemtl 14___Default
s 2
f 25/37/25 26/38/26 27/39/27 28/40/28 
s 4
f 29/40/29 30/37/30 31/38/31 32/39/32 
s 8
f 25/41/25 28/42/28 30/43/30 29/44/29 
s 16
f 28/45/28 27/46/27 31/47/31 30/48/30 
s 32
f 27/41/27 26/42/26 32/43/32 31/44/31 
s 64
f 26/45/26 25/46/25 29/47/29 32/48/32 
# 6 polygons

#
# object west_wall
#

v  -15.6754169464 -0.1136441231 -11.9423799515
v  -15.6754169464 7.4831619263 -11.9423780441
v  36.7692031860 7.4831619263 -11.9423780441
v  36.7692031860 -0.1136441231 -11.9423799515
v  -15.6754169464 -0.1136441231 -11.5425481796
v  36.7692031860 -0.1136441231 -11.5425481796
v  36.7692031860 7.4831619263 -11.5425462723
v  -15.6754169464 7.4831619263 -11.5425462723
# 8 vertices

vn -0.5773502588 -0.5773501396 -0.5773503780
vn -0.5773502588 0.5773503780 -0.5773501396
vn 0.5773502588 0.5773503780 -0.5773501396
vn 0.5773502588 -0.5773501396 -0.5773503780
vn -0.5773502588 -0.5773503780 0.5773501396
vn 0.5773502588 -0.5773503780 0.5773501396
vn 0.5773502588 0.5773501396 0.5773503780
vn -0.5773502588 0.5773501396 0.5773503780
# 8 vertex normals

vt 0.8062689900 0.9100003242 0.0000000000
vt 0.6843520999 0.9098485708 0.0000000000
vt 0.6853130460 0.1373857707 0.0000000000
vt 0.8072299361 0.1375374645 0.0000000000
vt 0.5337402821 -0.2622629702 0.0000000000
vt 0.7695208192 -0.2622629702 0.0000000000
vt 0.7695208192 -0.0264824033 0.0000000000
vt 0.5337402821 -0.0264824033 0.0000000000
vt -0.1464424729 0.5143840313 0.0000000000
vt -0.1115001440 0.5143840313 0.0000000000
vt -0.1115001440 0.5493264794 0.0000000000
vt -0.1464424729 0.5493264794 0.0000000000
# 12 texture coords

o west_wall
g west_wall
usemtl 14___Default
s 2
f 33/49/33 34/50/34 35/51/35 36/52/36 
s 4
f 37/52/37 38/49/38 39/50/39 40/51/40 
s 8
f 33/53/33 36/54/36 38/55/38 37/56/37 
s 16
f 36/57/36 35/58/35 39/59/39 38/60/38 
s 32
f 35/53/35 34/54/34 40/55/40 39/56/39 
s 64
f 34/57/34 33/58/33 37/59/37 40/60/40 
# 6 polygons

